<?xml version="1.0" encoding="utf-8"?>
<!-- Generator: Adobe Illustrator 23.0.2, SVG Export Plug-In . SVG Version: 6.00 Build 0)  -->
<svg version="1.1" id="Layer_1" xmlns="http://www.w3.org/2000/svg" xmlns:xlink="http://www.w3.org/1999/xlink" x="0px" y="0px"
	 viewBox="0 0 617.4 133.3" style="enable-background:new 0 0 617.4 133.3;" xml:space="preserve">
<style type="text/css">
	.st0{fill:#0E4E96;}
	.st1{fill:#00ABE6;}
	.st2{fill:#13A9E1;}
</style>
<g>
	<g>
		<g>
			<path class="st0" d="M49.3,13.8H26.1c-7.8,0-14.1,6.3-14.1,14.1v73.9h40c6.6,0,12.3-2.3,16.9-7c4.7-4.7,7-10.3,7-16.9
				c0-6.6-2.3-12.3-7-16.9c-1.6-1.6-3.3-2.9-5.1-3.9c0.9-0.6,1.7-1.3,2.5-2.1c4.7-4.7,7-10.3,7-16.9c0-6.6-2.3-12.3-7-16.9
				C61.6,16.1,55.9,13.8,49.3,13.8L49.3,13.8z M20.1,53.7V28.3c0-3.6,2.9-6.5,6.5-6.5h22.7c4.4,0,8.2,1.6,11.3,4.7
				c3,3,4.7,7.2,4.7,11.5c0,4.2-1.5,7.7-4.3,10.7c-3.1,3.3-7.6,5-12.2,5H20.1L20.1,53.7z M20.1,93.7v-32H52c4.4,0,8.2,1.6,11.3,4.7
				c3.1,3.1,4.7,6.9,4.7,11.3c0,4.4-1.6,8.2-4.7,11.3c-3.1,3.1-6.9,4.7-11.3,4.7H20.1L20.1,93.7z"/>
			<polygon class="st0" points="93,13.8 85,13.8 85,101.7 93,101.7 93,13.8 			"/>
			<path class="st0" d="M168.7,32.4h-8v49.1c-1.3,2.6-3,4.9-5.1,7c-5.2,5.2-11.5,7.8-18.9,7.8c-7.4,0-13.7-2.6-18.9-7.8
				c-5.2-5.2-7.8-11.5-7.8-18.9V32.4h-8v37.3c0,9.6,3.4,17.8,10.1,24.5c6.7,6.8,14.9,10.1,24.5,10.1c9.3,0,17.3-3.2,24-9.6l0,6.9h8
				V32.4L168.7,32.4z"/>
			<path class="st0" d="M212.4,29.8c-10.3,0-19.1,3.6-26.4,10.9c-7.3,7.3-10.9,16.1-10.9,26.4c0,10.3,3.6,19.1,10.9,26.4
				c7.3,7.3,16.1,10.9,26.4,10.9c10.3,0,19.1-3.7,26.4-11l-5.6-5.6c-5.8,5.8-12.7,8.6-20.8,8.6c-6.7,0-12.6-2-17.7-5.9l46.8-46.8
				c-0.9-1.1-1.7-2.1-2.7-3.1C231.5,33.4,222.7,29.8,212.4,29.8L212.4,29.8z M189,84.9c-4-5.1-6-11-6-17.8c0-8.1,2.9-15,8.6-20.7
				c5.7-5.7,12.6-8.6,20.7-8.6c6.7,0,12.7,2,17.8,6L189,84.9L189,84.9z"/>
			<g>
				<path class="st1" d="M252.8,27.8c0-7.8,6.3-14.1,14.1-14.1h23.2c6.6,0,12.3,2.3,16.9,7c4.7,4.7,7,10.3,7,16.9
					c0,6.6-2.3,12.3-7,16.9c-0.8,0.8-1.6,1.5-2.5,2.1c1.8,1.1,3.6,2.4,5.1,3.9c4.7,4.7,7,10.3,7,16.9c0,6.6-2.3,12.3-7,16.9
					c-4.7,4.7-10.3,7-16.9,7h-40V27.8z M260.9,27.8v25.9l28.6,0c4.6,0,9.1-1.7,12.2-5c2.8-3,4.3-6.6,4.3-10.7
					c0-4.3-1.7-8.5-4.7-11.5c-3.1-3.1-6.9-4.7-11.3-4.7H267C263.6,21.8,260.9,24.5,260.9,27.8z M260.9,61.7v32h31.9
					c4.4,0,8.2-1.6,11.3-4.7c3.1-3.1,4.7-6.9,4.7-11.3c0-4.4-1.6-8.2-4.7-11.3c-3.1-3.1-6.9-4.7-11.3-4.7H260.9z"/>
			</g>
			<g>
				<path class="st1" d="M340.1,90.5c5.1,3.9,11,5.9,17.7,5.9c8.1,0,15-2.9,20.8-8.6l5.6,5.6c-7.3,7.3-16.1,11-26.4,11
					c-10.3,0-19.1-3.6-26.4-10.9c-7.3-7.3-10.9-16.1-10.9-26.4c0-10.3,3.6-19.1,10.9-26.4c7.3-7.3,16.1-10.9,26.4-10.9
					c10.3,0,19.1,3.6,26.4,10.9c0.9,1,1.8,2,2.7,3.1L340.1,90.5z M375.6,43.7c-5.1-4-11-6-17.8-6c-8.1,0-15,2.9-20.7,8.6
					c-5.7,5.7-8.6,12.6-8.6,20.7c0,6.8,2,12.7,6,17.8L375.6,43.7z"/>
			</g>
			<g>
				<path class="st1" d="M407.8,90.5c5.1,3.9,11,5.9,17.7,5.9c8.1,0,15-2.9,20.8-8.6l5.6,5.6c-7.3,7.3-16.1,11-26.4,11
					c-10.3,0-19.1-3.6-26.4-10.9c-7.3-7.3-10.9-16.1-10.9-26.4c0-10.3,3.6-19.1,10.9-26.4c7.3-7.3,16.1-10.9,26.4-10.9
					c10.3,0,19.1,3.6,26.4,10.9c0.9,1,1.8,2,2.7,3.1L407.8,90.5z M443.3,43.7c-5.1-4-11-6-17.8-6c-8.1,0-15,2.9-20.7,8.6
					c-5.7,5.7-8.6,12.6-8.6,20.7c0,6.8,2,12.7,6,17.8L443.3,43.7z"/>
			</g>
		</g>
	</g>
	<path class="st1" d="M503.3,72.4c-1.8-2.1-4.1-3.9-7-5.3h0.1c-1.6-0.7-3.3-1.4-5.2-1.8l-15.7-4c-3.6-1-6.2-2.5-7.9-4.4
		c-1.7-2-2.6-4.3-2.6-7c0-3.1,1.3-5.9,4.1-8.3c2.7-2.4,6.6-3.6,11.8-3.8c7.2,0,13.5,1.9,19.1,5.8l6.2-5.3
		c-6.8-5.6-15.3-8.4-25.4-8.4c-7.2,0.1-12.9,2.2-17.3,6c-4.3,3.9-6.5,8.5-6.5,13.9c0,4.7,1.4,8.7,4.2,12c1.8,2.1,4.1,3.9,7,5.3h-0.1
		c1.6,0.7,3.3,1.4,5.2,1.8l15.7,4c3.6,1,6.2,2.5,7.9,4.4c1.7,2,2.6,4.3,2.6,7c0,3.1-1.3,5.9-4.1,8.3c-2.7,2.4-6.6,3.6-11.8,3.8
		c-7.2,0-13.5-1.9-19.1-5.8l-6.2,5.3c6.8,5.6,15.3,8.4,25.4,8.4c7.2-0.1,12.9-2.2,17.3-6c4.3-3.9,6.5-8.5,6.5-13.9
		C507.5,79.7,506.1,75.7,503.3,72.4z"/>
	<g>
		<g>
			<g>
				<g>
					<path class="st0" d="M458.2,29.1c3-3.5,6.8-6.2,11-8c4.1-1.8,8.6-2.7,13.1-2.8c4.5,0,9,0.9,13.1,2.7c4.1,1.8,8,4.5,11,8
						c-4-1.9-7.9-3.5-11.9-4.6c-4-1-8.1-1.6-12.1-1.6c-4.1,0-8.1,0.5-12.1,1.6C466.1,25.6,462.2,27.2,458.2,29.1z"/>
				</g>
				<g>
					<path class="st0" d="M464.3,17.5c2.2-2.7,5.1-4.7,8.2-6.1c3.1-1.4,6.5-2.1,9.8-2.1c3.4,0,6.7,0.7,9.8,2.1
						c3.1,1.4,6,3.4,8.2,6.1c-3-1.4-6-2.5-9-3.3c-3-0.8-6-1.1-9-1.1c-3,0-6,0.4-9,1.1C470.3,15,467.3,16.1,464.3,17.5z"/>
				</g>
			</g>
			<g>
				<g>
					<path class="st0" d="M506.4,105c-3,3.5-6.8,6.2-11,8c-4.1,1.8-8.6,2.7-13.1,2.8c-4.5,0-9-0.9-13.1-2.7c-4.1-1.8-8-4.5-11-8
						c4,1.9,7.9,3.5,11.9,4.6c4,1,8.1,1.6,12.1,1.6c4.1,0,8.1-0.5,12.1-1.6C498.5,108.5,502.4,106.9,506.4,105z"/>
				</g>
				<g>
					<path class="st0" d="M500.3,116.6c-2.2,2.7-5.1,4.7-8.2,6.1c-3.1,1.4-6.5,2.1-9.8,2.1c-3.4,0-6.7-0.7-9.8-2.1
						c-3.1-1.4-6-3.4-8.2-6.1c3,1.4,6,2.5,9,3.3c3,0.8,6,1.1,9,1.1c3,0,6-0.4,9-1.1C494.3,119.2,497.3,118,500.3,116.6z"/>
				</g>
			</g>
		</g>
	</g>
</g>
<g>
	<path class="st2" d="M521.3,101.6c-0.4-0.4-0.6-0.9-0.6-1.5v-6.4c0-0.6,0.2-1.1,0.6-1.6c0.4-0.4,0.9-0.7,1.5-0.7h6.4
		c0.6,0,1.1,0.2,1.5,0.7c0.4,0.4,0.6,1,0.6,1.6v6.4c0,0.6-0.2,1.1-0.6,1.5c-0.4,0.4-0.9,0.6-1.5,0.6h-6.4
		C522.2,102.2,521.7,102,521.3,101.6z"/>
	<path class="st2" d="M549.6,101.3c-2.6-1.2-4.6-2.9-6.1-5.1c-1.5-2.1-2.3-4.5-2.3-7.1c0-4.1,1.7-7.4,5-10c3.3-2.6,7.9-4.3,13.7-5.2
		l14-1.9v-2.7c0-6.4-3.7-9.6-11.1-9.6c-2.9,0-5.1,0.6-6.9,1.7c-1.7,1.2-3,2.5-3.8,4c-0.2,0.6-0.5,1-0.8,1.3
		c-0.3,0.2-0.7,0.3-1.2,0.3h-3.6c-0.6,0-1-0.2-1.4-0.6c-0.4-0.4-0.6-0.9-0.6-1.4c0-1.4,0.7-3.1,2-5c1.3-1.9,3.4-3.5,6.2-4.9
		c2.8-1.4,6.2-2.1,10.2-2.1c7,0,11.9,1.6,14.9,4.8s4.5,7.3,4.5,12.1v30.2c0,0.6-0.2,1.1-0.6,1.5c-0.4,0.4-0.9,0.6-1.5,0.6h-4.1
		c-0.6,0-1.1-0.2-1.5-0.6c-0.4-0.4-0.6-0.9-0.6-1.5V96c-1.4,2-3.4,3.8-6,5.1c-2.6,1.4-5.9,2-10,2C555,103.2,552.2,102.6,549.6,101.3
		z M569.9,92.4c2.6-2.7,3.9-6.5,3.9-11.6v-2.6l-10.9,1.6c-4.5,0.6-7.8,1.7-10.1,3.2c-2.3,1.5-3.4,3.3-3.4,5.6c0,2.5,1,4.5,3.1,5.9
		c2.1,1.4,4.5,2,7.4,2C564,96.4,567.3,95.1,569.9,92.4z"/>
	<path class="st2" d="M595.6,44.2c-0.4-0.4-0.6-0.9-0.6-1.5v-4.8c0-0.6,0.2-1.2,0.6-1.6c0.4-0.4,0.9-0.6,1.5-0.6h5.5
		c0.6,0,1.2,0.2,1.6,0.6c0.4,0.4,0.7,1,0.7,1.6v4.8c0,0.6-0.2,1.1-0.7,1.5c-0.4,0.4-1,0.6-1.6,0.6h-5.5
		C596.5,44.8,596,44.6,595.6,44.2z M596.4,101.6c-0.4-0.4-0.6-0.9-0.6-1.5V56c0-0.6,0.2-1.1,0.6-1.5c0.4-0.4,0.9-0.6,1.5-0.6h4.1
		c0.6,0,1.1,0.2,1.5,0.6c0.4,0.4,0.6,0.9,0.6,1.5v44.1c0,0.6-0.2,1.1-0.6,1.5c-0.4,0.4-0.9,0.6-1.5,0.6h-4.1
		C597.3,102.2,596.8,102,596.4,101.6z"/>
</g>
</svg>
